<?xml version="1.0" encoding="UTF-8"?>
<svg id="Layer_1" data-name="Layer 1" xmlns="http://www.w3.org/2000/svg" viewBox="0 0 1315.92 333.03">
  <defs>
    <style>
      .cls-1 {
        font-family: Poppins-Medium, Poppins;
        font-size: 50px;
        font-weight: 500;
        letter-spacing: .01em;
      }

      .cls-1, .cls-2 {
        fill: #283790;
      }
    </style>
  </defs>
  <text class="cls-1" transform="translate(493.39 303.93)"><tspan x="0" y="0">Infrastructure For Modern Africa</tspan></text>
  <g>
    <g>
      <path class="cls-2" d="m52.94,22.73v73.1h33.88c7.77,0,13.46-1.71,17.08-5.14,3.61-3.43,6.01-10.22,7.2-20.37h5.07v62.95h-5.07c-.09-7.22-1.03-12.53-2.81-15.91-1.78-3.38-4.25-5.92-7.41-7.61-3.15-1.69-7.84-2.54-14.06-2.54h-33.88v58.43c0,9.42.59,15.64,1.78,18.65.91,2.29,2.83,4.25,5.76,5.9,4.02,2.19,8.23,3.29,12.62,3.29h6.72v5.07H0v-5.07h6.58c7.68,0,13.26-2.24,16.73-6.72,2.19-2.93,3.29-9.96,3.29-21.12V45.49c0-9.42-.6-15.64-1.78-18.65-.92-2.28-2.79-4.25-5.62-5.9-3.93-2.19-8.14-3.29-12.62-3.29H0v-5.07h138.39l1.78,40.87h-4.8c-2.38-8.69-5.14-15.06-8.3-19.13-3.15-4.07-7.04-7.02-11.66-8.85-4.62-1.83-11.77-2.74-21.46-2.74h-41.01Z"/>
      <path class="cls-2" d="m439.24,111.6c1.46.09,2.89.16,4.26.2,1.37.06,2.65.08,3.83.08,2.93,0,6.73-.09,11.39-.28h-19.48Z"/>
      <path class="cls-2" d="m546.63,185.8c-6.3-4.02-13.85-12.16-22.63-24.41l-38.4-53.35c15.64-3.47,27.18-9.42,34.64-17.83,7.45-8.42,11.17-18.34,11.17-29.76,0-10.7-3.27-19.91-9.8-27.64-6.54-7.72-14.49-13.02-23.86-15.91-9.38-2.88-23.94-4.31-43.68-4.31h-67.76v5.07h7c7.03,0,12.35,2.01,15.91,6.03,2.56,2.84,3.84,10.11,3.84,21.81v57.6h-59.63s-.43,8.51-.43,8.51h60.06v54.04c0,10.61-.97,17.32-2.89,20.16-3.38,5.12-9,7.69-16.86,7.69h-7v5.07h79.69v-5.07h-7.27c-6.95,0-12.17-2.01-15.64-6.03-2.56-2.83-3.84-10.1-3.84-21.81v-54.04h19.48l62.95,86.95h49.65v-5.07c-10.16-1.1-18.38-3.66-24.7-7.69Zm-99.7-82.7c-.82,0-1.88-.02-3.16-.07-1.28-.04-2.79-.07-4.53-.07V25.6c9.06-1.73,16.24-2.61,21.54-2.61,11.98,0,21.59,3.64,28.86,10.91,7.27,7.27,10.91,16.71,10.91,28.32s-4.51,21.66-13.52,29.35c-9,7.69-22.37,11.52-40.11,11.52Z"/>
      <path class="cls-2" d="m714.08,12.58l2.06,43.61h-5.21c-1.01-7.68-2.38-13.17-4.11-16.46-2.84-5.3-6.61-9.21-11.31-11.73-4.71-2.51-10.9-3.77-18.58-3.77h-26.2v142.09c0,11.43,1.23,18.56,3.7,21.4,3.47,3.84,8.82,5.76,16.05,5.76h6.45v5.07h-78.86v-5.07h6.58c7.86,0,13.44-2.38,16.73-7.13,2.01-2.93,3.02-9.6,3.02-20.02V24.24h-22.36c-8.69,0-14.86.64-18.52,1.92-4.76,1.74-8.82,5.07-12.21,10.01-3.38,4.94-5.4,11.61-6.03,20.02h-5.21l2.19-43.61h151.83Z"/>
      <path class="cls-2" d="m833.41,194.38v5.07h-79.68v-5.07h6.58c7.68,0,13.26-2.24,16.73-6.72,2.19-2.93,3.29-9.96,3.29-21.12V46.39c0-9.42-.6-15.64-1.78-18.65-.92-2.28-2.79-4.25-5.62-5.9-4.02-2.19-8.23-3.29-12.62-3.29h-6.58v-5.07h79.68v5.07h-6.72c-7.59,0-13.12,2.24-16.6,6.72-2.29,2.93-3.43,9.97-3.43,21.12v120.14c0,9.42.59,15.64,1.78,18.65.91,2.29,2.83,4.25,5.76,5.9,3.93,2.19,8.09,3.29,12.48,3.29h6.72Z"/>
      <path class="cls-2" d="m987.21,17.65v-5.07h65.83v5.07h-6.99c-7.32,0-12.94,3.06-16.87,9.19-1.92,2.84-2.88,9.42-2.88,19.75v75.43c0,18.65-1.85,33.12-5.55,43.41-3.7,10.29-10.97,19.11-21.81,26.47-10.83,7.36-25.58,11.04-44.23,11.04-20.3,0-35.71-3.52-46.22-10.56-10.52-7.04-17.97-16.5-22.36-28.39-2.93-8.14-4.39-23.41-4.39-45.81V45.49c0-11.43-1.58-18.93-4.73-22.49s-8.25-5.35-15.29-5.35h-6.99v-5.07h80.37v5.07h-7.13c-7.68,0-13.17,2.42-16.46,7.27-2.29,3.29-3.43,10.15-3.43,20.57v81.06c0,7.22.66,15.5,1.99,24.82,1.32,9.33,3.72,16.6,7.2,21.81,3.47,5.21,8.48,9.51,15.02,12.89,6.54,3.38,14.56,5.07,24.07,5.07,12.16,0,23.04-2.65,32.64-7.95,9.6-5.3,16.16-12.09,19.68-20.37,3.52-8.27,5.28-22.29,5.28-42.04V45.49c0-11.61-1.28-18.88-3.84-21.81-3.57-4.02-8.87-6.03-15.91-6.03h-6.99Z"/>
      <path class="cls-2" d="m1183.9,200.75l-71.87-156.49v124.26c0,11.43,1.23,18.56,3.7,21.4,3.38,3.84,8.73,5.76,16.05,5.76h6.58v5.07h-64.74v-5.07h6.58c7.86,0,13.44-2.38,16.73-7.13,2.01-2.93,3.02-9.6,3.02-20.02V47c0-8.23-.92-14.17-2.74-17.83-1.28-2.65-3.63-4.87-7.06-6.65s-8.94-2.67-16.53-2.67v-5.07h52.67l67.48,145.52,66.38-145.52h52.67v5.07h-6.45c-7.95,0-13.58,2.38-16.87,7.13-2.01,2.93-3.02,9.6-3.02,20.02v121.52c0,11.43,1.28,18.56,3.84,21.4,3.38,3.84,8.73,5.76,16.05,5.76h6.45v5.07h-79v-5.07h6.58c7.95,0,13.53-2.38,16.73-7.13,2.01-2.93,3.02-9.6,3.02-20.02V44.26l-71.73,156.49h-4.53Z"/>
    </g>
    <path class="cls-2" d="m353.18,109.26c-1.47,21.16-9.13,36.89-9.34,36.89-.11-.03,2.04-6.3,2.72-12.7.12-1.15.33-3.49.43-6.28.15-4.4-.12-5.94,0-6.33,0-.01.02-.06,0-.1-.12-.17-1.22.17-1.71.85-.39.55-.28,1.15-.29,1.57-.02,2.48-3.84,3.22-5.13,6.71-.36.97-.02.79-.43,2.57-.66,2.89-2.17,6.15-2.85,6-1.22-.27-.66-11.68.64-16.15,0,0,.5-1.72.21-1.84-.3-.12-1.17,1.86-1.71,1.72-.51-.14-.01-1.96-.85-4-.41-.99-1-1.7-1.43-2.14-1.68.21-3,.04-3.86-.14-2.02-.42-2.53-1.1-2.71-1.42-.06-.11-.09-.2-.12-.26-.53-1.26.04-2.35-.16-2.45-.28-.14-1.07,1.89-2,1.86-.81-.03-1.44-1.62-2.28-3.71-.74-1.83-.87-2.69-1.29-2.71-.47-.02-1.08,1.08-1.14,2.14-.09,1.42.84,1.71,1.43,3.71.56,1.89.1,2.87.85,3.43.61.45,1.62.37,2.29,0,.81-.45,1.03-1.33,1.34-1.24.25.07.07.65.38,1.29.49,1,1.57.87,2.09,1.67.47.71.18,1.65-.09,2.52-.59,1.92-2.18,4.12-4.76,5-1.05.36-1.99.41-2.66.38.23.24.5.59.43.95-.1.53-.87.71-1.67,1-2.79,1-2.95,2.1-5.09,2.33-.43.05-1.02.07-1.75-.04.06.09.12.19.18.28-.58,2-.45,2.61-.19,2.76.44.25,1.16-.83,2.95-1.52,1.16-.45,2.99-.82,3.52-.1.3.39-.05.77.29,1.72.26.74.59.86.57,1.23-.05.73-1.34,1.13-2,1.43-2.4,1.09-2.63,3.65-4.19,5.9-1.02,1.47-2.92,3.26-6.85,4.38-1.43,1.88-2.85,3.75-4.28,5.62-.16,1.94-.32,3.87-.48,5.81-.32.61-.64,1.27-.95,2-.4.95-.71,1.85-.95,2.66-2.48,1.3-4.95,2.61-7.42,3.91-.45,1.52-.89,3.05-1.34,4.57-1.14.6-2.28,1.2-3.42,1.81-.72,1.52-2.46,4.57-6,6.57-3.77,2.13-7.77,2.03-9.99,1.23-.36-.13-1.81-.65-1.81-1.34,0-.43.56-.61,1.05-1.14.64-.7.76-1.6.76-3.42,0-1.44-.07-3.38-.38-5.71.43-2.95.19-5.19-.12-6.74-.25-1.21-.49-1.74-.29-2.64.45-1.94,2.14-1.99,3.36-4.28.73-1.37.82-2.66.93-4.07.13-1.83-.12-3.34-.36-4.35-.36-.21-1.56-.95-2.14-2.5-.44-1.16-.3-2.19-.22-2.64,1.84-.95,2.61-2.82,2.07-4.14-.3-.74-1.1-1.49-2-1.57-1.29-.12-2.32,1.15-2.64.85-.19-.17.17-.61.14-1.36-.03-.8-.49-1.55-.93-1.93-1.11-.97-3.01-.47-4.28-.14-1.83.47-2.38,1.15-3.57.85-.64-.16-.78-.43-1.57-.57-1.05-.19-1.85.09-2.35.22-1.8.45-3.83,0-5-.57-1.36-.68-.81-1.16-3.78-4.07-1.36-1.33-1.75-1.49-2.14-2.35-.45-1-.42-1.85-1.21-2.79-.4-.48-.84-.77-1.14-.92-.27-1.86-.48-2.84-.62-2.92.56-.64,3.17-3.77,2.55-6.29-.27-1.08-1.07-1.82-1.71-2.28.66-.74,1.33-1.5,2-2.28,1.88-2.22,3.6-4.43,5.13-6.57,2.46-.32,3.51-1.2,4-2,.79-1.28.17-2.39,1.14-3.42,1.02-1.08,2.17-.37,3.14-1.43,1.14-1.25.51-3.28,1.14-3.43.29-.07.43.33,1.24.95.09.08.99.76,2.19,1.14.67.22,1.58.52,2.66.29,1.42-.3,2.27-1.31,2.57-1.71,4.06-.04,8.12-.07,12.18-.1v3.62c-.64.47-.98,1.13-.85,1.72.15.68.91,1,1.23,1.14.86.37,1.15,0,2.19.38.55.19.97.48,1.24.66.57.38.95.77,1.05.86.73.74.68,1.03,1.14,1.23.58.25.81-.13,1.33.09.84.36.77,1.57,1.34,1.62h.04c.44,0,1-.66,1-.66.19-2.03.48-2.38.48-2.38.56-.7,1.68-.67,1.81-.66,1.51.07,1.86,1.44,4.29,2.76.47.26,1.16.63,2.09.86,1.87.46,3.52.05,4.47-.29.45,1.65.89,3.3,1.34,4.95-.09,1.61.15,2.82.38,3.62.34,1.16.67,1.52,1.34,3.52.4,1.21.61,1.82.66,2.38.19,1.75-.42,2.35.09,3.34.43.8,1.02.74,1.34,1.52.35.84.02,1.76-.29,2.38.95,1.49,1.91,2.97,2.85,4.46-.11-2.26-.22-4.53-.33-6.79-.41-1.03-.82-2.06-1.23-3.09-.38-.46-.76-.92-1.14-1.38.04-1,.09-2,.14-3-.76-2-1.52-4-2.28-5.99.09-1.8.1-3.12-.09-3.14-.23-.04-.48,1.79-.95,1.81-.35.01-.79-1.01-1.34-3.99.4.04.96.05,1.52-.19,2.61-1.12,2.9-6.44,1.72-7.04-.32-.17-.82-.02-1.52.19-1,.3-1.05.61-1.52.57-.94-.06-1.13-1.32-2-1.33-.58,0-.69.54-1.33.66-.86.16-1.86-.58-2.38-1.34-1.21-1.75.32-3.42-.93-4.97-.53-.66-1.71-1.5-1.71-1.5,0,0-1.69.75-1.93,1.71-.29,1.18,1.76,2,1.5,3.21-.16.74-1.14,1.37-1.93,1.29-1.27-.14-1.96-2.09-2.57-3.86-.59-1.68-.78-3.13-.86-4.07-2.28-2.36-4.56-4.71-6.85-7.07-.56,1.41-.49,2.45-.22,3.21.93,2.51,4.56,2.97,4.5,4.71-.02.65-.59,2.22-.64,2.36-.12.33-.19.51-.22.57-.25.53-.63,1.36-1.27,1.78-.94.61-2.54.4-2.79-.22-.32-.82,2.05-1.56,2.14-3.21.09-1.53-1.86-2.79-5.14-4.92-1.78-1.16-2.71-1.51-3.43-1.71-1.39-.4-3.91-.78-4.5.21-.4.69.45,1.44,0,2.14-.51.79-1.75.1-2.78.86-1.16.86-.43,2.39-1.5,3.86-.88,1.21-2.37,1.5-3.42,1.71-2.66.53-6.51-.14-7.49-2.35-.26-.57-.08-.69.21-4.5.22-2.95.14-3.14.43-3.43,1.6-1.6,6.04,2.24,8.56.43,1.05-.76,1.58-2.36,1.29-3.65-.28-1.21-1.26-1.94-1.68-2.21-1.27-.82-2.61-.63-2.61-.79,0-.19,2.06-.03,4.5-.86.58-.2,1.32-.56,2.78-1.29,1.75-.86,2.62-1.3,3-1.71,1.27-1.4.71-2.74,1.71-3.21,1.25-.6,3,1.09,3.64.43.16-.16.19-.46.25-1.06.03-.3.01-.52-.06-1.42-.09-1.03-.19-2.02-.19-2.02,1.93,3.13,2.79,3.43,2.79,3.43,1.08.39,1.51-.29,2.57.22,1.16.56,1.1,1.58,1.92,1.71.95.15,1.24-1.17,2.79-1.5,1.24-.26,1.86.43,2.35,0,.85-.72-.51-3.14.22-3.64.54-.37,1.5.82,2.78.43.04-.01.99-.31,1.08-.91.1-.69-1.09-.95-1.23-2.09-.01-.09-.11-.88.38-1.33.03-.03.15-.14.38-.22.75-.3,1.81,0,2.57.6.5.4.58.69.86.67.43-.04.86-.82.66-1.34-.14-.36-.56-.54-1.14-.66-2.5-.53-3.78.87-5.14.29-1.39-.6-2.2-2.98-1.62-4.48.41-1.07,1.31-1.11,2.19-2.86.33-.65.77-1.53.38-2.09-.47-.68-1.8-.4-1.91-.38-.77.17-1.75.76-1.81,1.52-.06.66.61.92.47,1.42-.15.58-1.08.42-1.9,1.15-.66.58-1.21,1.68-.95,2.56.31,1.1,1.59,1,1.91,2.2.17.63,0,1.39-.38,1.9-.48.64-1,.48-1.34,1.05-.4.7.23,1.22,0,2.09-.27,1.06-1.61,1.99-2.76,1.81-.93-.14-1.49-.99-1.91-1.62-1.21-1.85-.71-3.31-1.62-3.71-.46-.21-.68.14-2.48.57-1.42.34-2.12.51-2.66.28-1.31-.53-1.68-2.7-1.62-4,.01-.3.14-2.2,1.62-3.7,1.48-1.52,2.53-.81,4.19-2.09,1.68-1.31.97-2.29,3.24-5.52,1.09-1.55,2.05-2.89,3.81-3.52,1.01-.37,1.94-.38,2.95-.38.83,0,2.25.07,3.91.57,1.68.52,1.9.97,3.71,1.81,3.43,1.6,4.38.8,6.38,2.28,1.44,1.07,2.85,2.89,2.38,3.81-.39.74-1.98.79-3.05.57-2.41-.49-3.49-2.59-4.19-2.2-.35.21-.43.95-.19,1.43.46.96,1.87.44,2.95,1.43,1.16,1.05.87,2.84,1.34,2.85.45.02.43-1.68,1.62-2.28.79-.4,1.29.1,1.9-.38.83-.64.69-2.16.67-2.28-.04-.4-.12-.42-.38-1.62-.21-.99-.19-1.15-.09-1.24.29-.27,1.26.03,1.81.67.3.35.27.58.77,2.09.34,1.05.45,1.23.57,1.23.24,0,.27-.66.76-1.52.47-.82,1.05-1.31,1.43-1.62.62-.51,1.86-1.34,2.19-1.05.35.31-.62,1.52-.19,2,.23.26.74.17,1.62,0,.92-.17,1.37-.26,1.62-.57.66-.82-.32-2.4,0-2.57.2-.12.69.44,1.43,1.23.56.61,2.68,2.9,2.86,2.77.07-.06-.3-.42-.19-.86.13-.56.86-.53,1.05-.95.31-.69-1.23-1.73-2.66-3.81-.82-1.19-1.63-2.35-1.21-3.21.33-.69,1.39-1.1,1.93-.79.68.4.22,1.81.92,2.14.33.16.81.04,1.08-.22.34-.31.37-.84-.07-3.36-.3-1.7-.45-2.22-.36-3.13.07-.68.23-1.22.36-1.57.71.04,1.81.18,2.98.74.72.34,1.34.77,2.25,1.68C310.24,14.24,281.95,0,250.33,0c-56.93,0-103.09,46.16-103.09,103.09s46.16,103.09,103.09,103.09,103.09-46.15,103.09-103.09h3.45c0,2.09-3.52,3.74-3.69,6.17Zm-43.06-73.9c.5-1.44,2.39-1.88,2.57-1.93.2-.04,2.1-.47,2.78.43.93,1.21-1.75,3.05-1.49,6.42,0,0,0,.13.22.81.22.68.65,1.91,1.49,4.12,0,0-.48-.28-.52-.3-.46-.26-1.29-.77-1.62-.98-1.45-.94-2.18-1.41-2.56-2.14-.43-.81-.01-1.02-.22-2.79-.25-2.24-1-2.62-.64-3.64Zm-53.47,12.42c-.27.66-.88.93-1.72,1.29-.75.32-2.35,1.01-4.43.58-.89-.19-2.27-.48-3.14-1.72-.65-.92-.69-1.9-.71-2.28-.03-.48-.08-1.64.43-1.86.42-.19.82.46,2.28,1.29.82.45,1.36.76,2.14.85.64.08,1.23-.04,2.43-.28,1.41-.29,1.62-.47,2-.29.71.35,1.08,1.56.71,2.43Zm-35.89,98.04c-.06.61-.49,1.96-3.81,3.34.22,2.63.01,4.64-.19,5.9-.14.88-.31,1.55-.48,2.19-.45,1.79-.68,2.68-1.14,3.14-.59.6-1.51.75-3.33,1.05-1.91.32-2.45.12-2.95.67-.66.71-.53,1.94-.48,2.47.12,1.16.56,1.21.57,2.09.02,1.02-.53,1.16-1.23,2.95-.64,1.66-.4,2.15-1.05,2.66-.75.59-1.54.29-1.81.86-.19.4.15.66.29,1.81.1.86.16,1.31-.09,1.62-.55.67-1.81-.22-2.66.48-.65.53-.69,1.66-.48,2.38.19.65.48.59.76,1.23.58,1.36-.46,2.27.09,3.23.45.77,1.22.4,1.81,1.24.58.82,0,1.41.38,2.76.04.16.57,1.99,2.09,2.76,1.21.61,2.12.1,2.76.86.35.43.56,1.17.28,1.47-.76.85-5.92-1.1-8.99-5-1.91-2.42-1.26-3.37-4.14-7.99-1.8-2.89-2.08-2.57-3-4.43-1.39-2.83-.84-3.81-2-9.14-.42-1.96-1.04-4.07-2.28-8.28-.62-2.1-1.17-3.86-1.57-5.13-1.51-.86-4.19-2.64-6.42-5.86-2.04-2.93-2.82-5.76-3.15-7.42-.28-.09-1.68-.56-2.43-2-.57-1.13.12-2.13.29-4.14.12-1.55-.09-2.84-.29-3.71,1.3-.9,1.72-1.78,1.86-2.43.37-1.66-.95-2.45-.71-4.85.09-.88.35-1.61,0-1.86-.31-.22-.76.17-1.72.28,0,0-.8.09-1.71-.14-1.27-.33-1.66-1.6-4-5.29-.97-1.53-1.33-1.99-2-2.28-1.16-.52-1.97.03-2.56-.58-.84-.84.19-2.47-.58-3.14-.61-.54-1.47.39-2.71.14-2.1-.4-3.68-3.83-4-6.56-.18-1.54.02-2.93-.57-3.14-.57-.21-1.12.96-1.71.85-1.23-.22-1.2-5.66-1.29-9.57-.2-8.83-.97-7.63-.71-11.85.5-8.45,3.74-16.04,5.14-15.85.52.07.74,1.22,1,1.15.42-.13-.73-3.13.14-6.29.4-1.44,1.03-2.21,1.71-3.28,2.33-3.62,2.06-5.47,3.57-8.85,2.95-6.63,9.09-10.98,15.04-15.19.4-.28.73-.51.95-.66.01.06.04.13.06.22.64,2.45.6,2.99.8,3.06.36.13,1.39-1.31,3.99-6.86,1.27-.41,2.54-.82,3.81-1.23-.22.71-.12.95,0,1.05.45.37,1.88-.95,2.28-.57.19.18.13.74.06,1.02,0,.01-.02.12-.06.22-.26.69-1.08,1.27-1.71,2-.43.49-.64.74-.77,1.14-.24.82.18,1.19-.19,1.72-.27.38-.9.78-.97.82-.04.02-.07.04-.07.04-.07.04-.13.07-.17.09,0,0-.04.01-.08.04-.21.09-1.75.45-1.75.45,0-.04.01-.07.01-.08-.04,0-.51,1.28-.2,1.6.3.34,1.25-.06,1.33-.09.91-.38,1.08-1.03,1.52-.95.48.09.86.95.86.95,0,0,.12-.16.25-.35.14-.2.3-.43.41-.6.57-.82.52-.89.95-1.52.77-1.13,1.1-1.19,1.14-1.71.04-.61-.4-.69-.48-1.33-.12-1.05.91-1.99,2-2.95.73-.65,1.17-1.03,1.81-1.05.66-.01.72.39,1.52.48,1.09.12,1.54-.57,2.38-.29.45.16.43.4.86.67,1.47.92,3.55-.83,4.28-.1.51.51-.25,1.61.38,2.19.42.39.89,0,1.52.38.7.42.44,1.09,1.14,2.09.76,1.1,1.43.84,1.9,1.81.36.73.43,1.8-.09,2.38-.49.56-1.21.33-1.33.67-.26.7,2.86,1.62,3.14,3.42.28,1.81-2.38,4.05-3.43,3.62-.84-.35-.38-2.36-1.52-2.85-.53-.23-1.27-.07-1.42.28-.19.43.64.84,1.05,2.09.33,1.01.14,1.82.09,2-.19.73-.71,1.75-1.24,1.71-.66-.04-.74-1.73-1.52-1.81-.35-.03-.7.27-.85.57-.5.97.94,2.27.66,2.57-.34.37-3.33-.81-3.81-3.14-.15-.72-.01-1.35.09-1.71-1.28.91-2.69.7-3.14,0-.35-.54-.22-1.48.28-1.91.27-.22.54-.23,1.72-.29,1.16-.05,1.74-.08,1.81-.09,1.36-.23,2.65-1.5,3.05-2.95.25-.92.08-1.68-.09-2.48-.23-1.03-.38-1.73-.95-2.09-1.23-.79-3.61.46-3.71,1.52-.04.37.21.69,0,1.05-.19.34-.53.27-.86.57-.5.45-.14,1-.48,1.62-.66,1.21-3.23,1.23-3.23,1.23,0,0-.23.13-.46.32-.24.2-.47.46-.49.72-.03.4.48.53.95,1.14.63.82.86,2.08.48,2.38-.45.36-1.42-.85-2.57-.48-.59.19-.64.61-1.23.66-.49.05-.89-.19-1.52-.57-.9-.53-1.06-.89-1.43-.85-.27.02-.66.27-1.05,1.33-1.03.35-3.02,1.18-4.47,3.14-.43.57-1.37,1.88-1.34,3.62.01.52.03,1.25.48,1.52.87.54,2.48-1.18,3.14-.66.28.22.32.8.09,1.14-.49.74-2.08.09-2.38.66-.25.48.63,1.39.85,1.62.74.77,1.59,1.09,2.09,1.24-.55.79-1.79,2.82-1.23,4.95.09.35.44,1.68,1.23,1.81.65.1,1.39-.62,1.71-1.34.82-1.75-.81-3.48,0-4.38.4-.43.82-.07,1.91-.48.97-.36,2.32-1.27,2.66-2.57.39-1.49-.86-2.35-.28-3.33.53-.91,1.82-.57,2.09-1.34.33-.95-1.49-1.9-1.14-3.05.16-.53.75-.97,1.23-.95.42.02.5.38,1.05.57.56.2.84-.04,1.62-.09.22-.01,1.48-.09,2.38.57.74.55.96,1.4,1.05,1.72.58,2.34-1.36,4.44-.95,4.76.21.16.78-.34,2.38-1.43,1.65-1.12,2.47-1.68,2.77-1.52.9.48-1.42,4.11.19,6.66.71,1.14,1.53.97,2.57,2.66.5.81,1.18,1.93.95,3.14-.33,1.7-2.15,2.07-2,3.05.16,1.03,2.22.82,2.95,2.28.65,1.31-.05,3.38-1.15,3.81-.61.24-.83-.25-2.85-.67-1.44-.3-2.01-.2-2.28-.66-.38-.64.22-1.65.38-1.91.62-1.04,1.31-1.01,1.62-1.9.19-.58.19-1.4-.19-1.62-.58-.35-1.31,1.18-2.86,1.33-1.43.14-1.88-1.06-3.71-.95-.89.06-1.71.4-1.71.67,0,.3,1.07.24,1.34.85.2.48-.28.83-.67,2.19-.24.84-.35,1.26-.19,1.62.34.74,1.28.45,2.09,1.34.51.55.84,1.42.57,1.71-.4.46-1.86-.79-2.76-.19-.66.43-.36,1.39-1.05,1.71-.58.27-1.34-.17-1.52-.28-.96-.57-.83-1.35-1.43-1.52-.94-.27-2.68,1.25-2.76,2.76-.04.66.26,1.05,0,1.34-.4.43-1.23-.27-2.19.09-.69.26-.58.74-1.62,1.9-1,1.12-1.84,1.5-1.72,1.81.15.38,1.49.01,1.62.38.12.32-.79,1.08-1.62,1.52-.6.32-.99.38-1.14.76-.16.4.14.7.19,1.05.24,1.57-4.84,2.45-5.99,5.62-.18.5-.22,1.19-.29,2.57-.08,1.7-.13,2.61.1,3.81.22,1.18.53,1.7.19,2.19-.3.45-1.03.7-1.52.48-.73-.32-.83-1.62-.95-3.23-.14-1.82.09-2.67-.57-3.43-.14-.17-.42-.33-.95-.66-1.18-.73-1.91-1.18-2.47-.95-.61.26-.34,1.05-.95,1.43-.81.48-1.74-.58-3.05-.48-.64.05-1.55.4-2.57,1.81-.13,3.9-.25,7.81-.38,11.7.16.27.58.86,1.34,1.14.96.36,2.23.13,2.48-.48.14-.36-.22-.53-.29-1.23-.08-.74.18-1.86,1.05-2.28.48-.24,1.26-.31,1.71.09.7.61.36,2.03,0,3.52-.42,1.77-.63,2.65-.85,3.14-.15.33-.36.74-.19.95.2.26.77,0,1.91-.09.92-.07,1.38-.11,1.71.09.56.35.58,1.17.57,3.34-.02,3.44-.12,4.35.48,4.76.11.07.77.14,2.09.28.95.11,1.18.11,1.52.29.82.43,1.04,1.21,1.24,1.14.29-.1-.41-1.69.28-2.48.33-.38.65-.18,1.62-.48,1.72-.52,2.24-1.59,2.95-1.33.4.14.43.56.76,1.14.76,1.33,2.17,1.86,3.05,2.19,2.77,1.04,4.75-.4,5.52.67.5.7-.19,1.54.48,2.28.57.64,1.32.29,1.9.95.58.66.07,1.27.48,2,.71,1.25,2.76.3,5.14,1.62,1.33.73,2.08,1.78,2.57,2.47.77,1.08,1.37,1.94,1.23,2.95-.17,1.28-1.32,1.55-1.23,2.57.08.95,1.18,1.87,1.91,1.71.71-.16.58-1.28,1.33-1.62,1.04-.46,1.92,1.44,4.38,2.38,2.53.97,4.5.07,5.52,1.52.33.45.19.63.57,1.05,1.03,1.1,2.47.4,3.23,1.33.23.28.14.39.38,2.19.27,2.03.43,2.12.38,2.57Zm-41.55-39.12c-.97-.38-1.15-.17-1.57-.43-.62-.38-.38-.9-1.09-1.95-.32-.47-.9-1.33-1.76-1.43-.35-.04-.69.07-1.38.29-.82.25-1.1.48-1.39.33-.28-.16-.37-.59-.33-.9.09-.67.82-1.03,1.15-1.19,1.15-.57,2.32-.27,2.43-.24,1.46.4,1.16,1.38,2.95,2.38,1.28.71,2.36.74,2.71,1.67.14.36.07.63.33.86.44.38,1-.04,1.86.04.79.08,1.36.61,2.53,1.67.78.71,1.55,1.42,1.38,1.76-.14.27-.78.14-2.09.04-.78-.05-.56.01-2.81-.04-1.42-.04-1.81-.06-2.05-.38-.22-.3-.34-.87-.14-1.29.12-.25.29-.3.28-.48,0-.32-.59-.56-1-.71Zm.26,3.05c-.05.02-.09-.18-.29-.28-.35-.19-.67.25-1.18.21-.55-.04-.92-.62-1.18-1.03-.21-.34-.42-.66-.28-.93.12-.24.5-.35.78-.28.3.07.31.3.61.35.3.06.4-.15.64-.11.34.07.51.51.68.93.22.53.31,1.11.22,1.14Zm54.75-65.53c-2.19.45-3.63-1.01-4.71,0-.7.66-.35,1.49-1.29,2.86-.55.79-.94.9-1.86,1.71-2.48,2.18-2.78,4.13-3.71,4-.68-.1-.53-1.12-1.86-2.14-1.03-.79-1.48-.47-2.14-1.14-.47-.48-.51-.92-.86-3.86-.31-2.62-.35-2.91-.28-3.57.13-1.21.25-2.22,1-3,.81-.82,1.49-.5,2.86-1.57.56-.45,1.39-1.1,1.29-1.72-.17-.92-2.32-1.07-2.29-1.57.03-.45,1.86-.59,1.86-1,0-.38-1.52-.48-1.57-1-.04-.4.84-.53,1.42-1.29.65-.84.53-1.91.43-2.85-.12-1.08-.31-2.87-1.57-3.71-1.57-1.05-3.78.07-4.14-.71-.16-.34.25-.55.43-1.86.04-.27.2-1.44-.14-1.57-.09-.04-.19.01-.24.04-.7.36-.98.15-2.04.68-1.78.88-1.96,1.94-3.43,2.28-1.02.24-1.24-.2-2.14.14-1.16.45-.99,1.25-2,1.86-1.03.62-2.5.37-5.42-.14-.92-.16-1.25-.27-2-.28-1.47-.04-2.22.32-2.43,0-.31-.47.89-1.74,1-1.86.37-.39,1.14-1.17,2.43-1.57,1.72-.53,2.46.13,5.71,0,.7-.03,1.66-.07,1.86-.57.24-.59-.9-1.09-1-2.14-.13-1.39,1.6-3.16,3.42-3.57,1.39-.31,2.02.35,3.29-.28.85-.43.87-.88,1.71-1.14.89-.28,1.31.07,2.57.14,1.19.07,1.3-.22,3-.43,1.25-.14,2.12-.1,3.85,0,3.28.19,3.61.62,3.72.86.25.57-.35,1.05,0,1.71.28.54,1.03.88,1.57.71.57-.18.48-.81,1-1.29,1.16-1.07,3.87,0,4.56.28,1.89.75,2.85,1.77,3.29,1.43.43-.34-.38-1.49.14-2.14.46-.59,1.55-.25,3.42,0,3.55.45,3.51-.3,5.71.28,2.08.55,2.47,1.3,4,1.14,1.39-.14,2.29-.89,2.57-.57.41.46-1.41,2.11-.86,3.14.4.74,1.77.71,1.86.71.92-.03,1.18-.51,2-.71,1.66-.41,3.65.84,3.57,1.43-.08.54-1.91.74-3,.86-2.46.27-3.34-.25-3.99.43-.52.53-.12.98-.57,2.85-.42,1.71-.84,1.68-1,2.86-.27,2,.89,2.53.43,3.71-.6,1.53-2.73,1.03-3.57,2.71-.68,1.37.4,2.39-.43,3.42-.67.84-1.99.93-3,1-1.21.08-1.51-.19-2.57-.14-.3,0-1.47.07-3.29,1-4.02,2.04-3.91,4.6-6.57,5.14Zm80.2,44.02c-1.23-1.29-2.31-1.87-2.58-2-.6-.3-1.08-.46-1.42-.57-1.09-.35-1.75-.55-2.38-.29-.66.27-.77.83-1.05.77-.43-.11-.13-1.36-.76-2.76-.09-.19-.83-1.83-1.71-1.81-.61.01-.74.8-2.48,4.09-.65,1.23-.92,1.67-.86,2.38.07.83.56,1.8,1.52,2.28.7.35,1.77.51,2.48,0,.67-.48.52-1.23,1.14-1.43.58-.19,1.24.28,1.52.48.48.35.54.6.95,1.05.19.21,1.09,1.17,2.47,1.43.45.09,1.33.25,2.09-.19.51-.29.56-.61,1.15-.85.72-.31,1.17-.04,1.33-.29.3-.45-.93-1.76-1.42-2.28Zm-1.82,42.05v.02h.01s0-.01-.01-.02Zm-.27-47.67c-.08-.81-.57-2.02-1.52-2.19-.79-.14-1.47.52-1.91.95-.39.38-1,.98-.86,1.52.11.4.53.38,2.19,1.14.94.43,1.14.58,1.42.48.58-.22.73-1.26.67-1.91Z"/>
  </g>
</svg>