<svg id="Layer_1" data-name="Layer 1" xmlns="http://www.w3.org/2000/svg" viewBox="0 0 1315.92 333.03"><defs><style>.cls-1{fill:#273c89;}</style></defs><path class="cls-1" d="M303.92,304.6V263.3h5.9v41.3Z"/><path class="cls-1" d="M322.8,304.6V273.33h5.43v8.44l-.88-2.24a10.79,10.79,0,0,1,4.72-4.78A15.47,15.47,0,0,1,339.5,273a14.85,14.85,0,0,1,6.76,1.47,10.64,10.64,0,0,1,4.57,4.49,15.68,15.68,0,0,1,1.65,7.61v18h-5.66V287.26q0-4.54-2.22-6.85a8.23,8.23,0,0,0-6.22-2.3,11.17,11.17,0,0,0-5.25,1.18,8.05,8.05,0,0,0-3.45,3.48,12.21,12.21,0,0,0-1.21,5.73v16.1Z"/><path class="cls-1" d="M359.91,278v-4.66h19.95V278Zm5.31,26.61v-34a10.06,10.06,0,0,1,2.69-7.35c1.79-1.82,4.34-2.74,7.64-2.74a14,14,0,0,1,3.51.44,7.72,7.72,0,0,1,2.86,1.39l-1.71,4.31a6.51,6.51,0,0,0-2-1.09,7.08,7.08,0,0,0-2.36-.39,4.92,4.92,0,0,0-3.77,1.39,5.77,5.77,0,0,0-1.3,4.1v4.19l.12,2.59v27.2Z"/><path class="cls-1" d="M386.64,304.6V273.33h5.43v8.5l-.53-2.12a9.57,9.57,0,0,1,4.36-5,15.37,15.37,0,0,1,7.56-1.71v5.49a4.18,4.18,0,0,0-.68-.06h-.62a9.61,9.61,0,0,0-7.2,2.71q-2.65,2.71-2.66,7.85V304.6Z"/><path class="cls-1" d="M419.33,305a14.9,14.9,0,0,1-6.11-1.18,9.35,9.35,0,0,1-4-3.28,8.23,8.23,0,0,1-1.42-4.75,9,9,0,0,1,1.21-4.6,8.41,8.41,0,0,1,4-3.3,18.15,18.15,0,0,1,7.4-1.24h9.91v4.07h-9.67c-2.84,0-4.74.47-5.73,1.42a4.56,4.56,0,0,0-1.47,3.42,4.41,4.41,0,0,0,1.83,3.69,8.25,8.25,0,0,0,5.07,1.38,10.81,10.81,0,0,0,5.58-1.41,8.14,8.14,0,0,0,3.45-4.13l1.12,3.89a8.83,8.83,0,0,1-3.95,4.39A14.13,14.13,0,0,1,419.33,305Zm10.26-.36V298l-.29-1.24V285.49a7.3,7.3,0,0,0-2.1-5.58c-1.39-1.32-3.49-2-6.28-2a16.55,16.55,0,0,0-5.43.91A14,14,0,0,0,411,281.3l-2.36-4.25a17.07,17.07,0,0,1,5.81-3,24.21,24.21,0,0,1,7.11-1q6.44,0,9.91,3.13t3.48,9.55V304.6Z"/><path class="cls-1" d="M455.85,305a25.72,25.72,0,0,1-7.41-1.06,17.37,17.37,0,0,1-5.51-2.6l2.36-4.48a20.69,20.69,0,0,0,11,3.24c2.64,0,4.53-.37,5.69-1.12a3.54,3.54,0,0,0,1.75-3.13,2.75,2.75,0,0,0-1.07-2.3,7.33,7.33,0,0,0-2.8-1.24c-1.16-.27-2.45-.52-3.86-.73s-2.84-.5-4.25-.83a16.69,16.69,0,0,1-3.9-1.42,7.36,7.36,0,0,1-2.83-2.53,7.83,7.83,0,0,1-1.06-4.34,8.06,8.06,0,0,1,1.59-5,10.15,10.15,0,0,1,4.52-3.27A18.77,18.77,0,0,1,457,273a26.81,26.81,0,0,1,6.22.74,15.54,15.54,0,0,1,5.17,2.09l-2.42,4.48a13.35,13.35,0,0,0-4.43-1.94,20.05,20.05,0,0,0-4.6-.53,10.16,10.16,0,0,0-5.55,1.21,3.58,3.58,0,0,0-1.82,3.09,2.91,2.91,0,0,0,1.09,2.45,7.76,7.76,0,0,0,2.83,1.33,37.26,37.26,0,0,0,3.86.8c1.42.21,2.83.49,4.25.82a17.67,17.67,0,0,1,3.87,1.39,7.52,7.52,0,0,1,2.83,2.48,7.42,7.42,0,0,1,1.09,4.24,7.6,7.6,0,0,1-1.65,4.9,10.71,10.71,0,0,1-4.66,3.22A20.36,20.36,0,0,1,455.85,305Z"/><path class="cls-1" d="M473.37,278v-4.66h19.94V278Zm15.22,27q-4.71,0-7.31-2.54c-1.74-1.69-2.6-4.11-2.6-7.26V266.49h5.66v28.44a5.5,5.5,0,0,0,1.27,3.89,4.72,4.72,0,0,0,3.63,1.36,6.66,6.66,0,0,0,4.43-1.48l1.77,4.07a8.34,8.34,0,0,1-3.1,1.66A13.33,13.33,0,0,1,488.59,305Z"/><path class="cls-1" d="M503.7,304.6V273.33h5.42v8.5l-.53-2.12a9.59,9.59,0,0,1,4.37-5,15.3,15.3,0,0,1,7.55-1.71v5.49a4,4,0,0,0-.68-.06h-.62a9.62,9.62,0,0,0-7.2,2.71q-2.65,2.71-2.65,7.85V304.6Z"/><path class="cls-1" d="M542.46,305a15.84,15.84,0,0,1-7.05-1.48,10.5,10.5,0,0,1-4.72-4.51,15.65,15.65,0,0,1-1.68-7.64v-18h5.66v17.35q0,4.6,2.21,6.9a8.22,8.22,0,0,0,6.23,2.3,10.38,10.38,0,0,0,5.13-1.21,8,8,0,0,0,3.36-3.54,12.29,12.29,0,0,0,1.18-5.63V273.33h5.67V304.6h-5.37v-8.43l.88,2.24a10.92,10.92,0,0,1-4.6,4.84A13.93,13.93,0,0,1,542.46,305Z"/><path class="cls-1" d="M584.29,305a17.35,17.35,0,0,1-8.53-2.07,15.14,15.14,0,0,1-5.87-5.66,17.15,17.15,0,0,1,0-16.52,15,15,0,0,1,5.87-5.64,17.66,17.66,0,0,1,8.53-2,16.61,16.61,0,0,1,7.58,1.68,11.89,11.89,0,0,1,5.16,5l-4.3,2.77a9.59,9.59,0,0,0-3.75-3.39,10.59,10.59,0,0,0-4.75-1.1,11.09,11.09,0,0,0-5.49,1.36,10.08,10.08,0,0,0-3.83,3.81,11.35,11.35,0,0,0-1.42,5.81,11.51,11.51,0,0,0,1.42,5.84,9.93,9.93,0,0,0,3.83,3.83,11,11,0,0,0,5.49,1.36,10.58,10.58,0,0,0,4.75-1.09,9.74,9.74,0,0,0,3.75-3.39l4.3,2.71a12.35,12.35,0,0,1-5.16,5A16.13,16.13,0,0,1,584.29,305Z"/><path class="cls-1" d="M601.57,278v-4.66h19.95V278Zm15.23,27q-4.72,0-7.32-2.54t-2.6-7.26V266.49h5.67v28.44a5.46,5.46,0,0,0,1.27,3.89,4.69,4.69,0,0,0,3.63,1.36,6.63,6.63,0,0,0,4.42-1.48l1.77,4.07a8.26,8.26,0,0,1-3.1,1.66A13.31,13.31,0,0,1,616.8,305Z"/><path class="cls-1" d="M645.06,305a15.84,15.84,0,0,1-7-1.48,10.5,10.5,0,0,1-4.72-4.51,15.65,15.65,0,0,1-1.68-7.64v-18h5.66v17.35q0,4.6,2.21,6.9a8.22,8.22,0,0,0,6.23,2.3,10.4,10.4,0,0,0,5.13-1.21,8.06,8.06,0,0,0,3.36-3.54,12.29,12.29,0,0,0,1.18-5.63V273.33h5.67V304.6h-5.37v-8.43l.88,2.24a11,11,0,0,1-4.6,4.84A14,14,0,0,1,645.06,305Z"/><path class="cls-1" d="M673.26,304.6V273.33h5.43v8.5l-.53-2.12a9.57,9.57,0,0,1,4.36-5,15.33,15.33,0,0,1,7.55-1.71v5.49a4,4,0,0,0-.68-.06h-.61a9.61,9.61,0,0,0-7.2,2.71q-2.66,2.71-2.66,7.85V304.6Z"/><path class="cls-1" d="M711.9,305a18.19,18.19,0,0,1-8.82-2.07,14.89,14.89,0,0,1-5.9-5.66,16.17,16.17,0,0,1-2.09-8.26,16.55,16.55,0,0,1,2-8.26,14.75,14.75,0,0,1,5.61-5.64,17,17,0,0,1,16.08,0,14.16,14.16,0,0,1,5.45,5.64,17.41,17.41,0,0,1,2,8.47c0,.23,0,.51,0,.82s-.05.61-.09.89H699.51v-4.07h23.66l-2.3,1.41a10.5,10.5,0,0,0-1.24-5.37,9.36,9.36,0,0,0-3.57-3.68,11.09,11.09,0,0,0-10.53,0,9.38,9.38,0,0,0-3.6,3.71,11.33,11.33,0,0,0-1.3,5.46v.94a10.79,10.79,0,0,0,1.45,5.58,9.88,9.88,0,0,0,4,3.8,12.62,12.62,0,0,0,6,1.36,13.05,13.05,0,0,0,5-.94,11.18,11.18,0,0,0,4-2.83l3.12,3.65a13.58,13.58,0,0,1-5.28,3.78A18.26,18.26,0,0,1,711.9,305Z"/><path class="cls-1" d="M753.62,304.6V263.3h29.14v5.14H759.52V304.6Zm5.31-16.69v-5.08h21.29v5.08Z"/><path class="cls-1" d="M803.88,305a16.72,16.72,0,0,1-8.34-2.07,15.22,15.22,0,0,1-5.82-5.69A16,16,0,0,1,787.6,289a15.83,15.83,0,0,1,2.12-8.23,15.52,15.52,0,0,1,5.79-5.64,16.78,16.78,0,0,1,8.37-2.06,17.06,17.06,0,0,1,8.35,2,14.85,14.85,0,0,1,5.78,5.64,17.29,17.29,0,0,1,0,16.52,15,15,0,0,1-5.78,5.66A16.76,16.76,0,0,1,803.88,305Zm0-5a10.67,10.67,0,0,0,5.4-1.36,9.55,9.55,0,0,0,3.75-3.86,12.07,12.07,0,0,0,1.36-5.81,11.85,11.85,0,0,0-1.36-5.81,9.74,9.74,0,0,0-3.75-3.81,10.77,10.77,0,0,0-5.4-1.36,10.6,10.6,0,0,0-5.36,1.36,10.17,10.17,0,0,0-3.78,3.81,11.35,11.35,0,0,0-1.42,5.81,11.55,11.55,0,0,0,1.42,5.81,10,10,0,0,0,3.78,3.86A10.5,10.5,0,0,0,803.88,300Z"/><path class="cls-1" d="M829.37,304.6V273.33h5.43v8.5l-.53-2.12a9.57,9.57,0,0,1,4.36-5,15.37,15.37,0,0,1,7.56-1.71v5.49a4.18,4.18,0,0,0-.68-.06h-.62a9.61,9.61,0,0,0-7.2,2.71Q835,283.9,835,289V304.6Z"/><path class="cls-1" d="M873.09,304.6V263.3h4.84l18.52,31.21h-2.59l18.29-31.21H917l0,41.3h-5.66l-.06-32.39h1.36l-16.29,27.38h-2.71l-16.4-27.38h1.47V304.6Z"/><path class="cls-1" d="M943.42,305a16.76,16.76,0,0,1-8.35-2.07,15.12,15.12,0,0,1-5.81-5.69,16,16,0,0,1-2.13-8.23,15.74,15.74,0,0,1,2.13-8.23A15.42,15.42,0,0,1,935,275.1a16.82,16.82,0,0,1,8.38-2.06,17.09,17.09,0,0,1,8.35,2,15,15,0,0,1,5.78,5.64,17.37,17.37,0,0,1,0,16.52,15.11,15.11,0,0,1-5.78,5.66A16.79,16.79,0,0,1,943.42,305Zm0-5a10.72,10.72,0,0,0,5.4-1.36,9.53,9.53,0,0,0,3.74-3.86,12,12,0,0,0,1.36-5.81,11.74,11.74,0,0,0-1.36-5.81,9.72,9.72,0,0,0-3.74-3.81,10.83,10.83,0,0,0-5.4-1.36,10.61,10.61,0,0,0-5.37,1.36,10.24,10.24,0,0,0-3.78,3.81,11.44,11.44,0,0,0-1.41,5.81,11.65,11.65,0,0,0,1.41,5.81,10,10,0,0,0,3.78,3.86A10.51,10.51,0,0,0,943.42,300Z"/><path class="cls-1" d="M981.83,305a16.27,16.27,0,0,1-8.12-2,14.7,14.7,0,0,1-5.63-5.6A16.53,16.53,0,0,1,966,289a16.34,16.34,0,0,1,2.07-8.35,14.79,14.79,0,0,1,5.63-5.58,16.37,16.37,0,0,1,8.12-2,14.42,14.42,0,0,1,7.13,1.77,12.91,12.91,0,0,1,5.11,5.31A18.4,18.4,0,0,1,996,289a18.89,18.89,0,0,1-1.86,8.85,12.74,12.74,0,0,1-5,5.34A14.47,14.47,0,0,1,981.83,305Zm.47-5a10.61,10.61,0,0,0,5.34-1.36,9.73,9.73,0,0,0,3.77-3.86A11.75,11.75,0,0,0,992.8,289a11.54,11.54,0,0,0-1.39-5.81,9.93,9.93,0,0,0-3.77-3.81,11.22,11.22,0,0,0-10.71,0,10.31,10.31,0,0,0-3.78,3.81,11.44,11.44,0,0,0-1.41,5.81,11.65,11.65,0,0,0,1.41,5.81,10.09,10.09,0,0,0,3.78,3.86A10.51,10.51,0,0,0,982.3,300ZM993,304.6v-8.43l.35-7.26-.59-7.26V260.83h5.66V304.6Z"/><path class="cls-1" d="M1024.48,305a18.19,18.19,0,0,1-8.82-2.07,14.89,14.89,0,0,1-5.9-5.66,16.17,16.17,0,0,1-2.09-8.26,16.55,16.55,0,0,1,2-8.26,14.75,14.75,0,0,1,5.61-5.64,16,16,0,0,1,8.05-2,15.83,15.83,0,0,1,8,2,14.18,14.18,0,0,1,5.46,5.64,17.41,17.41,0,0,1,2,8.47c0,.23,0,.51,0,.82s0,.61-.09.89h-26.61v-4.07h23.66l-2.3,1.41a10.5,10.5,0,0,0-1.24-5.37,9.36,9.36,0,0,0-3.57-3.68,11.09,11.09,0,0,0-10.53,0,9.38,9.38,0,0,0-3.6,3.71,11.33,11.33,0,0,0-1.3,5.46v.94a10.7,10.7,0,0,0,1.45,5.58,9.88,9.88,0,0,0,4,3.8,12.62,12.62,0,0,0,6,1.36,13,13,0,0,0,5-.94,11.22,11.22,0,0,0,4-2.83l3.12,3.65a13.58,13.58,0,0,1-5.28,3.78A18.26,18.26,0,0,1,1024.48,305Z"/><path class="cls-1" d="M1048.08,304.6V273.33h5.43v8.5l-.53-2.12a9.57,9.57,0,0,1,4.36-5,15.37,15.37,0,0,1,7.56-1.71v5.49a4.18,4.18,0,0,0-.68-.06h-.62a9.61,9.61,0,0,0-7.2,2.71q-2.65,2.71-2.65,7.85V304.6Z"/><path class="cls-1" d="M1073.1,304.6V273.33h5.43v8.44l-.89-2.24a10.84,10.84,0,0,1,4.72-4.78,15.47,15.47,0,0,1,7.43-1.71,14.85,14.85,0,0,1,6.76,1.47,10.59,10.59,0,0,1,4.57,4.49,15.68,15.68,0,0,1,1.66,7.61v18h-5.67V287.26q0-4.54-2.21-6.85a8.26,8.26,0,0,0-6.23-2.3,11.23,11.23,0,0,0-5.25,1.18,8.16,8.16,0,0,0-3.45,3.48,12.33,12.33,0,0,0-1.21,5.73v16.1Z"/><path class="cls-1" d="M1126.55,304.6l18.7-41.3h5.85l18.76,41.3h-6.2l-16.69-38h2.36l-16.7,38Zm8-10.32,1.59-4.72h23.25l1.71,4.72Z"/><path class="cls-1" d="M1172.1,278v-4.66H1192V278Zm5.31,26.61v-34a10.06,10.06,0,0,1,2.68-7.35c1.79-1.82,4.34-2.74,7.64-2.74a14,14,0,0,1,3.51.44,7.69,7.69,0,0,1,2.87,1.39l-1.71,4.31a6.63,6.63,0,0,0-2-1.09,7.12,7.12,0,0,0-2.36-.39,5,5,0,0,0-3.78,1.39,5.81,5.81,0,0,0-1.29,4.1v4.19l.11,2.59v27.2Z"/><path class="cls-1" d="M1198.83,304.6V273.33h5.42v8.5l-.53-2.12a9.59,9.59,0,0,1,4.37-5,15.3,15.3,0,0,1,7.55-1.71v5.49a4,4,0,0,0-.68-.06h-.62a9.62,9.62,0,0,0-7.2,2.71c-1.76,1.81-2.65,4.43-2.65,7.85V304.6Z"/><path class="cls-1" d="M1226.67,267.32a3.77,3.77,0,0,1-2.74-1.07,3.45,3.45,0,0,1-1.09-2.59,3.56,3.56,0,0,1,1.09-2.66,3.76,3.76,0,0,1,2.74-1.06,3.89,3.89,0,0,1,2.75,1,3.43,3.43,0,0,1,1.09,2.57,3.69,3.69,0,0,1-3.84,3.78Zm-2.83,37.28V273.33h5.67V304.6Z"/><path class="cls-1" d="M1255.35,305a17.35,17.35,0,0,1-8.53-2.07,15.14,15.14,0,0,1-5.87-5.66,17.15,17.15,0,0,1,0-16.52,15,15,0,0,1,5.87-5.64,17.66,17.66,0,0,1,8.53-2,16.61,16.61,0,0,1,7.58,1.68,11.89,11.89,0,0,1,5.16,5l-4.31,2.77a9.5,9.5,0,0,0-3.74-3.39,10.59,10.59,0,0,0-4.75-1.1,11.06,11.06,0,0,0-5.49,1.36,10.08,10.08,0,0,0-3.83,3.81,11.35,11.35,0,0,0-1.42,5.81,11.51,11.51,0,0,0,1.42,5.84,9.93,9.93,0,0,0,3.83,3.83,11,11,0,0,0,5.49,1.36,10.58,10.58,0,0,0,4.75-1.09,9.65,9.65,0,0,0,3.74-3.39l4.31,2.71a12.35,12.35,0,0,1-5.16,5A16.13,16.13,0,0,1,1255.35,305Z"/><path class="cls-1" d="M1286,305a14.9,14.9,0,0,1-6.11-1.18,9.35,9.35,0,0,1-4-3.28,8.3,8.3,0,0,1-1.42-4.75,9,9,0,0,1,1.21-4.6,8.41,8.41,0,0,1,4-3.3,18.18,18.18,0,0,1,7.4-1.24h9.91v4.07h-9.67q-4.24,0-5.73,1.42a4.56,4.56,0,0,0-1.47,3.42,4.41,4.41,0,0,0,1.83,3.69,8.25,8.25,0,0,0,5.07,1.38,10.79,10.79,0,0,0,5.58-1.41,8.14,8.14,0,0,0,3.45-4.13l1.12,3.89a8.78,8.78,0,0,1-4,4.39A14.13,14.13,0,0,1,1286,305Zm10.26-.36V298l-.29-1.24V285.49a7.3,7.3,0,0,0-2.1-5.58c-1.39-1.32-3.49-2-6.28-2a16.55,16.55,0,0,0-5.43.91,14,14,0,0,0-4.48,2.45l-2.36-4.25a17.07,17.07,0,0,1,5.81-3,24.21,24.21,0,0,1,7.11-1q6.43,0,9.91,3.13t3.48,9.55V304.6Z"/><path class="cls-1" d="M52.94,22.73v73.1H86.82q11.66,0,17.07-5.14t7.2-20.37h5.08v63h-5.08q-.14-10.83-2.81-15.91a17.75,17.75,0,0,0-7.41-7.61q-4.73-2.53-14.05-2.54H52.94v58.43q0,14.13,1.78,18.65c.92,2.29,2.84,4.25,5.76,5.9a26.07,26.07,0,0,0,12.62,3.29h6.72v5.07H0v-5.07H6.58q11.52,0,16.74-6.72,3.29-4.39,3.29-21.12V45.49q0-14.12-1.79-18.65a12.4,12.4,0,0,0-5.62-5.9A25.53,25.53,0,0,0,6.58,17.65H0V12.58H138.39l1.78,40.87h-4.8q-3.57-13-8.3-19.13a27.22,27.22,0,0,0-11.66-8.85Q108.48,22.73,94,22.73Z"/><path class="cls-1" d="M439.24,111.6c1.46.09,2.89.16,4.26.2s2.65.08,3.83.08q4.4,0,11.39-.28Z"/><path class="cls-1" d="M546.63,185.8q-9.46-6-22.63-24.42L485.6,108q23.46-5.21,34.64-17.83A43.5,43.5,0,0,0,531.4,60.44q0-16-9.79-27.64a50.11,50.11,0,0,0-23.87-15.9q-14.07-4.32-43.68-4.32H386.3v5.07h7c7,0,12.35,2,15.91,6q3.84,4.26,3.84,21.81v57.6H353.42L353,111.6h60.06v54q0,15.92-2.89,20.16-5.07,7.68-16.86,7.68h-7v5.07H466v-5.07h-7.27q-10.43,0-15.64-6-3.84-4.24-3.84-21.81v-54h19.48l62.95,87h49.65v-5.07Q556.09,191.83,546.63,185.8Zm-99.71-82.71q-1.23,0-3.15-.06c-1.28,0-2.79-.07-4.53-.07V25.6Q452.83,23,460.78,23q18,0,28.86,10.91t10.91,28.32A36.85,36.85,0,0,1,487,91.58Q473.55,103.1,446.92,103.09Z"/><path class="cls-1" d="M714.08,12.58l2.06,43.61h-5.21q-1.51-11.52-4.12-16.46A27.47,27.47,0,0,0,695.5,28q-7.07-3.78-18.58-3.77h-26.2V166.32q0,17.15,3.7,21.4,5.22,5.76,16.05,5.76h6.45v5.07H598.05v-5.07h6.59q11.79,0,16.73-7.13,3-4.4,3-20V24.24H602q-13,0-18.51,1.92-7.14,2.6-12.21,10t-6,20h-5.21l2.2-43.61Z"/><path class="cls-1" d="M833.41,194.38v5.07H753.72v-5.07h6.59q11.52,0,16.73-6.73,3.3-4.38,3.29-21.12V46.39q0-14.13-1.78-18.65a12.36,12.36,0,0,0-5.62-5.9,26,26,0,0,0-12.62-3.29h-6.59V13.47h79.69v5.08h-6.72q-11.38,0-16.6,6.72-3.42,4.38-3.42,21.12V166.53q0,14.13,1.78,18.66c.91,2.28,2.83,4.25,5.76,5.89a25.17,25.17,0,0,0,12.48,3.3Z"/><path class="cls-1" d="M987.21,17.65V12.58h65.84v5.07h-7a18.91,18.91,0,0,0-16.87,9.19q-2.88,4.26-2.88,19.75V122q0,28-5.55,43.41T998.94,191.9q-16.25,11-44.23,11-30.45,0-46.22-10.56A57.16,57.16,0,0,1,886.13,164q-4.38-12.19-4.39-45.81V45.49q0-17.13-4.73-22.49t-15.29-5.35h-7V12.58H935.1v5.07H928q-11.52,0-16.45,7.27-3.43,4.93-3.43,20.57v81.06a177.92,177.92,0,0,0,2,24.82q2,14,7.2,21.81a39.15,39.15,0,0,0,15,12.89q9.81,5.09,24.07,5.08,18.24,0,32.65-8t19.68-20.36q5.28-12.42,5.28-42V45.49q0-17.41-3.84-21.8-5.36-6-15.91-6Z"/><path class="cls-1" d="M1183.9,200.75,1112,44.26V168.52q0,17.14,3.7,21.39,5.07,5.76,16,5.76h6.58v5.08h-64.73v-5.08h6.58q11.79,0,16.73-7.13,3-4.38,3-20V47q0-12.34-2.74-17.83a15.27,15.27,0,0,0-7.07-6.65q-5.14-2.67-16.52-2.67V14.77h52.66l67.48,145.52,66.38-145.52h52.67v5.08h-6.45q-11.92,0-16.87,7.13-3,4.39-3,20V168.52q0,17.14,3.84,21.39,5.07,5.76,16,5.76h6.45v5.08h-79v-5.08h6.58q11.94,0,16.73-7.13,3-4.38,3-20V44.26l-71.73,156.49Z"/><path class="cls-1" d="M353.18,109.26c-1.47,21.16-9.14,36.89-9.35,36.89a85.15,85.15,0,0,0,2.72-12.7c.12-1.15.33-3.49.43-6.28.15-4.4-.12-6,0-6.33a.16.16,0,0,0,0-.1c-.13-.17-1.23.17-1.72.85a2.42,2.42,0,0,0-.28,1.58c0,2.48-3.85,3.22-5.14,6.7-.36,1,0,.79-.43,2.57-.66,2.89-2.18,6.16-2.85,6-1.22-.27-.66-11.67.64-16.15,0,0,.5-1.72.21-1.84s-1.17,1.86-1.71,1.72,0-2-.86-4a6.8,6.8,0,0,0-1.42-2.14,11.85,11.85,0,0,1-3.86-.15c-2-.42-2.53-1.1-2.72-1.42l-.12-.26c-.53-1.27,0-2.35-.16-2.46s-1.07,1.9-2,1.86-1.44-1.62-2.28-3.71c-.74-1.84-.87-2.7-1.29-2.72s-1.08,1.08-1.14,2.15c-.09,1.41.84,1.71,1.43,3.71s.1,2.87.85,3.43a2.28,2.28,0,0,0,2.29,0c.81-.46,1-1.33,1.33-1.24s.07.65.38,1.28c.49,1,1.57.87,2.09,1.67a3,3,0,0,1-.09,2.52,7.73,7.73,0,0,1-4.76,5,7.2,7.2,0,0,1-2.66.38,1.15,1.15,0,0,1,.42,1c-.1.53-.87.72-1.66,1-2.8,1-3,2.1-5.1,2.33a6.52,6.52,0,0,1-1.74,0l.18.28c-.58,2-.45,2.61-.19,2.76.44.25,1.16-.83,2.95-1.52,1.17-.45,3-.82,3.52-.1.3.39,0,.77.29,1.72.26.73.59.86.57,1.23-.05.73-1.34,1.14-2,1.43-2.4,1.09-2.63,3.66-4.19,5.9-1,1.47-2.92,3.26-6.85,4.38L302.63,152l-.48,5.81c-.32.61-.64,1.27-.95,2-.4.95-.71,1.85-1,2.66l-7.42,3.91c-.45,1.52-.89,3.05-1.33,4.57l-3.43,1.81a14.87,14.87,0,0,1-6,6.57,12.7,12.7,0,0,1-10,1.23c-.36-.13-1.8-.65-1.8-1.33,0-.43.56-.62,1-1.14.64-.71.76-1.61.76-3.43a43.16,43.16,0,0,0-.38-5.71,19.25,19.25,0,0,0-.12-6.74,5.83,5.83,0,0,1-.29-2.64c.45-1.93,2.14-2,3.36-4.28a9.58,9.58,0,0,0,.93-4.07,14.09,14.09,0,0,0-.36-4.36,4.93,4.93,0,0,1-2.14-2.49,4.83,4.83,0,0,1-.21-2.64c1.84-.95,2.6-2.82,2.07-4.14a2.57,2.57,0,0,0-2-1.57c-1.29-.12-2.32,1.15-2.64.85s.16-.61.14-1.36a2.84,2.84,0,0,0-.93-1.92c-1.11-1-3-.47-4.28-.14-1.83.47-2.38,1.15-3.57.85a12.63,12.63,0,0,0-1.57-.57,5,5,0,0,0-2.36.22,8,8,0,0,1-5-.57c-1.37-.68-.81-1.17-3.79-4.08-1.36-1.32-1.75-1.49-2.14-2.35s-.42-1.85-1.21-2.79a4.12,4.12,0,0,0-1.15-.92,9.39,9.39,0,0,0-.62-2.93c.56-.63,3.17-3.76,2.55-6.28a4.17,4.17,0,0,0-1.71-2.29c.67-.73,1.33-1.5,2-2.28,1.89-2.22,3.6-4.42,5.14-6.57,2.45-.32,3.5-1.2,4-2,.78-1.28.16-2.39,1.14-3.42s2.17-.37,3.14-1.43c1.14-1.25.51-3.28,1.14-3.43.29-.07.43.33,1.24,1a7.34,7.34,0,0,0,2.19,1.14,4.8,4.8,0,0,0,2.66.29,4.45,4.45,0,0,0,2.57-1.71l12.18-.1V96.8a1.8,1.8,0,0,0-.85,1.72c.15.67.91,1,1.24,1.14.86.36,1.14,0,2.18.38a5.61,5.61,0,0,1,1.25.66,7.35,7.35,0,0,1,1,.86c.73.74.68,1,1.14,1.24s.81-.13,1.33.09c.84.36.77,1.57,1.34,1.62h0c.44,0,1-.67,1-.67a5.73,5.73,0,0,1,.48-2.38,2.34,2.34,0,0,1,1.81-.66c1.51.06,1.85,1.43,4.29,2.76a8.16,8.16,0,0,0,2.09.85,7.73,7.73,0,0,0,4.47-.28q.68,2.48,1.33,5a11,11,0,0,0,.38,3.62c.34,1.16.67,1.52,1.34,3.52a12.61,12.61,0,0,1,.66,2.38c.19,1.74-.42,2.35.09,3.33.43.8,1,.75,1.34,1.52a2.93,2.93,0,0,1-.29,2.38c.95,1.49,1.91,3,2.85,4.46-.11-2.26-.21-4.53-.33-6.79l-1.23-3.09c-.39-.46-.76-.93-1.14-1.38,0-1,.09-2,.13-3-.76-2-1.51-4-2.28-6,.09-1.8.1-3.12-.09-3.14s-.49,1.79-1,1.81-.78-1-1.33-4a2.94,2.94,0,0,0,1.52-.19c2.62-1.12,2.9-6.44,1.72-7-.32-.17-.82,0-1.52.19-1,.29-1.06.6-1.53.57-.94-.07-1.13-1.32-2-1.33-.57,0-.68.54-1.33.66a2.75,2.75,0,0,1-2.38-1.33c-1.2-1.76.33-3.42-.93-5a10.9,10.9,0,0,0-1.71-1.5s-1.69.75-1.93,1.71c-.29,1.18,1.76,2,1.5,3.21A1.92,1.92,0,0,1,294.87,96c-1.28-.14-2-2.1-2.58-3.86a15.84,15.84,0,0,1-.85-4.06Q288,84.5,284.58,81a4.43,4.43,0,0,0-.21,3.21c.93,2.51,4.56,3,4.5,4.71a12.89,12.89,0,0,1-.65,2.36c-.12.33-.19.5-.22.57a4.24,4.24,0,0,1-1.27,1.78c-.94.61-2.54.4-2.79-.21-.32-.82,2.05-1.56,2.15-3.22s-1.86-2.78-5.15-4.92a11.72,11.72,0,0,0-3.43-1.71c-1.39-.4-3.91-.78-4.49.21-.4.68.45,1.44,0,2.14s-1.76.1-2.78.86c-1.17.86-.43,2.39-1.51,3.86a5.21,5.21,0,0,1-3.42,1.71c-2.66.52-6.51-.14-7.49-2.36-.26-.57-.08-.69.21-4.49.22-3,.14-3.15.43-3.43,1.6-1.61,6,2.23,8.56.43a3.72,3.72,0,0,0,1.29-3.65,3.82,3.82,0,0,0-1.68-2.21,8.17,8.17,0,0,0-2.6-.78c0-.2,2.06,0,4.5-.86.58-.21,1.32-.57,2.77-1.29a12.75,12.75,0,0,0,3-1.71c1.27-1.4.71-2.74,1.71-3.21,1.25-.6,3,1.09,3.64.42.16-.16.19-.46.24-1.06a7.58,7.58,0,0,0,0-1.41c-.09-1-.19-2-.19-2,1.93,3.12,2.79,3.42,2.79,3.42,1.07.39,1.51-.28,2.57.22s1.09,1.58,1.92,1.71,1.24-1.17,2.78-1.5c1.25-.26,1.86.43,2.36,0,.85-.72-.51-3.14.21-3.64.55-.37,1.51.82,2.78.44.05,0,1-.32,1.08-.91s-1.09-1-1.23-2.1a1.62,1.62,0,0,1,.37-1.33,1.18,1.18,0,0,1,.38-.22,2.78,2.78,0,0,1,2.57.6c.5.4.58.69.86.67a1.11,1.11,0,0,0,.67-1.34c-.14-.36-.57-.54-1.14-.66-2.5-.53-3.78.87-5.14.29s-2.21-3-1.62-4.48c.41-1.07,1.31-1.11,2.19-2.86.32-.65.76-1.53.38-2.09s-1.8-.41-1.91-.38c-.77.17-1.74.76-1.8,1.53s.6.92.47,1.42-1.08.42-1.9,1.15a2.72,2.72,0,0,0-.95,2.56c.31,1.1,1.58,1,1.9,2.2a2.31,2.31,0,0,1-.38,1.89c-.49.65-1,.49-1.34,1.05s.23,1.22,0,2.1a2.67,2.67,0,0,1-2.76,1.81,3.11,3.11,0,0,1-1.9-1.62c-1.21-1.85-.71-3.31-1.62-3.71-.46-.21-.68.14-2.48.57-1.41.34-2.12.5-2.66.28-1.31-.53-1.68-2.7-1.62-4a5.94,5.94,0,0,1,1.62-3.7c1.48-1.52,2.53-.81,4.19-2.1s1-2.29,3.24-5.52c1.09-1.55,2-2.89,3.81-3.52a8.31,8.31,0,0,1,2.94-.39,13.55,13.55,0,0,1,3.91.57c1.68.52,1.9,1,3.71,1.82,3.43,1.6,4.37.8,6.37,2.28,1.44,1.07,2.86,2.89,2.39,3.81-.39.74-2,.79-3.05.57-2.41-.49-3.49-2.59-4.19-2.19-.35.2-.42.94-.19,1.42.47,1,1.87.45,2.95,1.43s.87,2.84,1.34,2.86.43-1.68,1.61-2.29c.79-.4,1.3.11,1.9-.38.83-.64.69-2.16.67-2.28,0-.4-.12-.42-.38-1.62-.21-1-.19-1.14-.09-1.24.29-.27,1.26,0,1.8.67.3.35.28.58.77,2.1.34,1,.45,1.23.57,1.23s.27-.66.76-1.52a5.54,5.54,0,0,1,1.43-1.62c.62-.51,1.86-1.34,2.18-1s-.62,1.52-.18,2c.23.26.73.17,1.61,0s1.38-.26,1.62-.57c.66-.82-.32-2.39,0-2.57s.69.44,1.43,1.24c.56.61,2.68,2.9,2.86,2.76s-.3-.42-.2-.86.86-.52,1.05-1c.31-.69-1.23-1.73-2.66-3.8-.83-1.2-1.63-2.35-1.22-3.22a1.63,1.63,0,0,1,1.93-.78c.68.39.22,1.8.93,2.14a1,1,0,0,0,1.07-.22c.34-.31.37-.83-.07-3.35a10.82,10.82,0,0,1-.36-3.14,6.43,6.43,0,0,1,.36-1.57,7.48,7.48,0,0,1,5.24,2.42,103.11,103.11,0,1,0,24.26,66.45h3.45C356.86,105.18,353.35,106.83,353.18,109.26Zm-43.06-73.9c.5-1.44,2.39-1.89,2.57-1.93s2.1-.47,2.78.43c.93,1.22-1.75,3.06-1.49,6.42a4.1,4.1,0,0,0,.22.81c.23.68.65,1.91,1.49,4.12l-.52-.3c-.46-.26-1.29-.76-1.63-1-1.45-.94-2.18-1.41-2.56-2.15s0-1-.22-2.78C310.51,36.76,309.77,36.38,310.12,35.36ZM256.65,47.78c-.27.66-.88.93-1.71,1.28a7.08,7.08,0,0,1-4.43.58,4.72,4.72,0,0,1-3.14-1.72,4.17,4.17,0,0,1-.71-2.28c0-.48-.08-1.64.43-1.86s.81.47,2.28,1.29a5.57,5.57,0,0,0,2.14.85,7.65,7.65,0,0,0,2.43-.28c1.41-.29,1.62-.47,2-.29A2,2,0,0,1,256.65,47.78Zm-35.88,98c-.07.61-.49,2-3.81,3.33a23.36,23.36,0,0,1-.19,5.9c-.15.88-.31,1.55-.48,2.19-.45,1.79-.68,2.68-1.14,3.14s-1.51.75-3.33,1.05-2.44.12-2.95.67a3.28,3.28,0,0,0-.48,2.47c.13,1.15.56,1.21.57,2.09s-.53,1.16-1.23,3-.41,2.15-1,2.66-1.54.29-1.81.86c-.19.4.15.66.29,1.8.1.86.16,1.32-.1,1.62-.54.67-1.81-.22-2.66.48a2.4,2.4,0,0,0-.48,2.38c.2.65.49.59.76,1.24.58,1.36-.46,2.26.1,3.23.44.77,1.22.4,1.81,1.24s0,1.41.38,2.76a4.66,4.66,0,0,0,2.09,2.76c1.21.61,2.13.1,2.76.86.36.42.56,1.17.28,1.47-.75.85-5.92-1.1-9-5-1.9-2.41-1.26-3.37-4.14-8-1.8-2.89-2.08-2.57-3-4.42-1.39-2.84-.84-3.81-2-9.15-.41-1.95-1-4.06-2.28-8.28-.62-2.1-1.17-3.85-1.57-5.13a19.65,19.65,0,0,1-9.57-13.28,4.23,4.23,0,0,1-2.43-2c-.57-1.13.13-2.13.29-4.14a11.75,11.75,0,0,0-.29-3.72,4,4,0,0,0,1.86-2.42c.37-1.66-.95-2.46-.71-4.85.09-.88.35-1.61,0-1.86s-.76.17-1.72.28a5,5,0,0,1-1.71-.14c-1.27-.33-1.66-1.6-4-5.28-1-1.53-1.33-2-2-2.28-1.16-.52-2,0-2.56-.58-.84-.84.19-2.47-.58-3.14-.61-.54-1.47.39-2.71.14-2.1-.4-3.67-3.83-4-6.56-.18-1.54,0-2.93-.57-3.14s-1.12,1-1.71.85c-1.23-.22-1.2-5.66-1.28-9.57-.2-8.83-1-7.63-.72-11.84.5-8.45,3.74-16.05,5.14-15.85.52.07.75,1.22,1,1.14.42-.13-.73-3.13.14-6.28a10.73,10.73,0,0,1,1.72-3.28c2.33-3.62,2-5.47,3.57-8.85,2.95-6.63,9.09-11,15-15.2.4-.28.73-.51,1-.65l0,.22c.64,2.46.6,3,.81,3.06.36.13,1.39-1.31,4-6.86l3.81-1.23c-.22.71-.12.95,0,1,.46.37,1.88-.94,2.28-.57.2.18.13.75.07,1a.7.7,0,0,1-.07.22c-.26.68-1.07,1.27-1.71,2a3,3,0,0,0-.76,1.14c-.24.82.18,1.19-.19,1.72a3.48,3.48,0,0,1-1,.81.17.17,0,0,1-.07,0l-.17.09-.07,0c-.21.09-1.76.45-1.76.45l0-.08c-.05,0-.51,1.28-.21,1.6s1.25-.05,1.33-.09c.91-.38,1.08-1,1.53-.95s.85.95.85.95l.26-.35c.13-.21.3-.44.41-.6.57-.83.52-.89.95-1.53.77-1.13,1.11-1.19,1.14-1.71s-.39-.68-.47-1.33c-.13-1.05.91-2,2-3,.73-.65,1.17-1,1.81-1s.72.39,1.52.48c1.09.12,1.54-.57,2.38-.29.45.16.43.4.86.67,1.46.93,3.55-.83,4.28-.1.51.51-.25,1.61.38,2.2.42.39.89,0,1.52.37s.45,1.09,1.15,2.1,1.43.83,1.89,1.81a2.26,2.26,0,0,1-.09,2.37c-.49.57-1.21.34-1.33.68-.26.7,2.86,1.62,3.14,3.42s-2.38,4-3.43,3.62c-.84-.36-.37-2.37-1.52-2.86-.53-.23-1.27-.06-1.42.29s.63.84,1,2.09a3.74,3.74,0,0,1,.1,2c-.19.73-.72,1.75-1.24,1.71s-.74-1.73-1.53-1.8a1,1,0,0,0-.85.57c-.5,1,.94,2.27.66,2.57s-3.32-.81-3.8-3.14a3.64,3.64,0,0,1,.09-1.72c-1.27.91-2.68.7-3.14,0a1.61,1.61,0,0,1,.28-1.9c.27-.23.55-.23,1.72-.29l1.81-.09a4.18,4.18,0,0,0,3-3,4.92,4.92,0,0,0-.09-2.48c-.23-1-.38-1.73-.95-2.09-1.24-.79-3.61.46-3.71,1.52,0,.37.21.69,0,1s-.53.27-.86.57c-.5.45-.15,1-.48,1.62-.66,1.2-3.23,1.23-3.23,1.23a3.57,3.57,0,0,0-.47.33,1.25,1.25,0,0,0-.49.72c0,.4.49.53,1,1.14.62.82.86,2.08.47,2.38s-1.41-.85-2.57-.47c-.59.19-.64.61-1.23.66a2.56,2.56,0,0,1-1.53-.57c-.89-.53-1.06-.89-1.43-.85s-.65.26-1,1.33a9.11,9.11,0,0,0-4.47,3.14,5.87,5.87,0,0,0-1.34,3.61c0,.52,0,1.25.48,1.53.87.54,2.48-1.19,3.14-.67a.94.94,0,0,1,.09,1.14c-.49.74-2.08.09-2.37.67s.63,1.38.85,1.62a4.85,4.85,0,0,0,2.09,1.24c-.54.78-1.79,2.81-1.23,4.94.09.36.44,1.69,1.23,1.82s1.39-.62,1.72-1.34c.81-1.75-.81-3.48,0-4.38.39-.43.81-.07,1.9-.47a4.31,4.31,0,0,0,2.67-2.57c.39-1.49-.86-2.36-.29-3.33s1.82-.57,2.1-1.34c.33-1-1.5-1.9-1.14-3a1.39,1.39,0,0,1,1.23-1c.42,0,.5.38,1.05.57s.84,0,1.62-.09a3.9,3.9,0,0,1,2.38.57,3.08,3.08,0,0,1,1.05,1.72c.58,2.34-1.37,4.44-1,4.76.21.16.78-.34,2.38-1.43s2.47-1.68,2.76-1.53c.91.49-1.41,4.11.19,6.67.72,1.14,1.53,1,2.57,2.66a4.56,4.56,0,0,1,1,3.14c-.34,1.7-2.16,2.07-2,3.05s2.22.82,3,2.28-.05,3.38-1.15,3.81c-.61.24-.83-.24-2.85-.67-1.44-.29-2-.2-2.28-.66-.38-.64.22-1.65.37-1.91.62-1,1.32-1,1.62-1.9.19-.57.19-1.4-.19-1.61-.58-.35-1.31,1.18-2.86,1.32s-1.88-1.06-3.71-1c-.89.06-1.71.41-1.71.67s1.07.24,1.34.86c.2.47-.29.83-.68,2.18-.23.84-.35,1.26-.18,1.62.34.74,1.27.46,2.09,1.34.51.55.84,1.41.57,1.71-.4.46-1.86-.79-2.76-.19-.65.43-.36,1.39-1,1.71a1.82,1.82,0,0,1-1.53-.28c-1-.57-.83-1.35-1.43-1.52-.94-.28-2.68,1.25-2.76,2.75,0,.66.26,1,0,1.34s-1.23-.27-2.18.09c-.69.26-.59.75-1.62,1.9s-1.84,1.5-1.72,1.82,1.49,0,1.62.38-.8,1.08-1.62,1.52c-.6.32-1,.38-1.14.76s.14.7.19,1.05c.24,1.56-4.85,2.45-6,5.61a10.32,10.32,0,0,0-.28,2.57,14.89,14.89,0,0,0,.1,3.81c.21,1.18.52,1.7.18,2.19a1.33,1.33,0,0,1-1.52.47c-.73-.32-.83-1.62-1-3.23-.14-1.82.09-2.67-.57-3.43a4.74,4.74,0,0,0-1-.66c-1.17-.73-1.91-1.19-2.47-1s-.33,1.06-.95,1.43c-.81.49-1.74-.58-3.05-.47a3.63,3.63,0,0,0-2.57,1.81q-.19,5.85-.38,11.7a2.68,2.68,0,0,0,1.34,1.14c1,.36,2.23.13,2.47-.47.14-.36-.21-.54-.29-1.24a2.33,2.33,0,0,1,1-2.28,1.64,1.64,0,0,1,1.71.09c.7.61.36,2,0,3.52a21.33,21.33,0,0,1-.85,3.14c-.15.33-.36.74-.19,1s.76,0,1.9-.09c.93-.07,1.38-.11,1.71.09.56.35.59,1.17.57,3.34,0,3.44-.12,4.35.48,4.76a13.26,13.26,0,0,0,2.09.28,4.07,4.07,0,0,1,1.53.29c.82.42,1,1.21,1.24,1.14s-.41-1.69.28-2.48c.33-.37.65-.18,1.62-.47,1.72-.52,2.24-1.59,2.95-1.33.41.14.44.56.76,1.14a5.44,5.44,0,0,0,3,2.19c2.76,1,4.75-.4,5.52.67.5.7-.19,1.54.48,2.28s1.32.29,1.9.95.07,1.27.47,2c.71,1.25,2.76.31,5.14,1.62a7.63,7.63,0,0,1,2.57,2.47c.77,1.08,1.38,1.93,1.24,3-.17,1.28-1.32,1.55-1.24,2.57s1.19,1.87,1.91,1.71.59-1.27,1.33-1.61c1-.47,1.92,1.43,4.38,2.38s4.5.07,5.52,1.52c.32.46.19.63.57,1,1,1.1,2.47.4,3.23,1.33.23.28.14.39.39,2.19A23.38,23.38,0,0,1,220.77,145.82ZM179.22,106.7c-1-.38-1.15-.18-1.57-.43-.62-.37-.38-.89-1.09-2-.32-.47-.9-1.33-1.76-1.43a3.64,3.64,0,0,0-1.38.29c-.83.25-1.1.48-1.39.33a.94.94,0,0,1-.33-.9c.09-.67.82-1,1.15-1.19a3.65,3.65,0,0,1,2.42-.24c1.46.4,1.17,1.38,2.95,2.38,1.28.71,2.36.73,2.71,1.66.14.36.08.63.34.86.44.39,1,0,1.85,0s1.37.6,2.53,1.66c.78.72,1.54,1.43,1.38,1.77s-.78.13-2.1,0c-.78,0-.56,0-2.8,0-1.43,0-1.81-.07-2.06-.39a1.36,1.36,0,0,1-.13-1.28c.12-.25.29-.3.28-.48S179.63,106.86,179.22,106.7Zm.26,3s-.09-.18-.29-.28-.67.25-1.17.21-.92-.62-1.18-1-.42-.67-.28-.93a.71.71,0,0,1,.78-.28c.29.07.31.3.6.35s.4-.15.65-.11.51.51.68.93S179.58,109.71,179.48,109.74Zm54.76-65.53c-2.2.46-3.64-1-4.71,0-.7.66-.35,1.49-1.29,2.86-.55.79-.94.9-1.85,1.71-2.49,2.18-2.78,4.13-3.71,4-.68-.1-.54-1.12-1.87-2.14-1-.8-1.48-.47-2.13-1.14-.47-.48-.51-.92-.86-3.86a16.14,16.14,0,0,1-.29-3.57,4.69,4.69,0,0,1,1-3c.81-.82,1.5-.5,2.86-1.57.56-.44,1.39-1.09,1.29-1.72-.18-.91-2.32-1.06-2.29-1.56s1.85-.59,1.85-1-1.51-.48-1.56-1,.83-.53,1.42-1.29a3.8,3.8,0,0,0,.43-2.85c-.11-1.08-.31-2.87-1.57-3.71-1.58-1.06-3.78.07-4.14-.72-.16-.34.24-.54.43-1.85,0-.27.2-1.44-.15-1.58a.36.36,0,0,0-.24,0c-.7.36-1,.15-2,.68-1.78.88-2,1.94-3.43,2.28-1,.24-1.24-.2-2.14.15-1.15.44-1,1.24-2,1.85s-2.5.37-5.42-.14a11.89,11.89,0,0,0-2-.29c-1.47,0-2.22.33-2.43,0s.89-1.74,1-1.85a5.55,5.55,0,0,1,2.43-1.57c1.71-.53,2.46.13,5.71,0,.7,0,1.66-.08,1.85-.58s-.9-1.09-1-2.13c-.13-1.4,1.6-3.16,3.42-3.58,1.39-.31,2,.35,3.28-.28.86-.42.87-.88,1.72-1.14s1.31.07,2.57.14,1.3-.23,3-.43a20.45,20.45,0,0,1,3.85,0c3.28.19,3.61.62,3.72.86.25.57-.35,1.06,0,1.71a1.47,1.47,0,0,0,1.56.72c.57-.18.49-.81,1-1.29,1.16-1.07,3.87,0,4.56.28,1.89.75,2.85,1.77,3.29,1.43s-.38-1.48.14-2.13,1.55-.25,3.42,0c3.55.44,3.51-.3,5.71.28s2.47,1.3,4,1.14,2.29-.89,2.57-.57-1.4,2.11-.85,3.14c.39.74,1.76.71,1.85.71.93,0,1.19-.51,2-.71,1.66-.41,3.66.84,3.58,1.43s-1.92.74-3,.86c-2.46.27-3.33-.25-4,.42s-.12,1-.57,2.86c-.42,1.71-.84,1.68-1,2.86-.28,2,.88,2.53.42,3.71-.6,1.53-2.73,1-3.57,2.71-.67,1.37.4,2.39-.42,3.42-.67.84-2,.94-3,1-1.2.08-1.51-.19-2.57-.15a8,8,0,0,0-3.28,1C236.78,41.11,236.89,43.67,234.24,44.21Zm80.19,44a9.49,9.49,0,0,0-2.58-2,8.81,8.81,0,0,0-1.42-.57c-1.09-.34-1.74-.55-2.38-.29s-.77.83-1.05.77-.13-1.36-.76-2.76c-.08-.19-.83-1.83-1.71-1.81-.6,0-.74.8-2.47,4.09-.65,1.24-.92,1.67-.86,2.39a2.86,2.86,0,0,0,1.52,2.28,2.55,2.55,0,0,0,2.48,0c.67-.49.52-1.23,1.14-1.43s1.24.28,1.52.47c.49.35.54.6,1,1a4.61,4.61,0,0,0,2.46,1.43,3,3,0,0,0,2.1-.19c.51-.29.55-.61,1.15-.86s1.17,0,1.32-.28C316.16,90.06,314.92,88.75,314.43,88.23Zm-1.82,42.06v0h0S312.62,130.29,312.61,130.29Zm-.27-47.67c-.08-.81-.57-2-1.52-2.19s-1.47.52-1.91.95-1,1-.86,1.53c.11.39.53.38,2.19,1.14.94.43,1.15.58,1.43.47C312.25,84.3,312.4,83.27,312.34,82.62Z"/></svg>